<svg xmlns="http://www.w3.org/2000/svg" width="24" height="24" viewBox="0 0 24 24">
    <g data-name="Group 5">
        <path data-name="Rectangle 12" style="fill:none" d="M0 0h24v24H0z"/>
        <g style="opacity:.5">
            <path data-name="Path 13" d="M22 15.94A5.047 5.047 0 0 1 16.97 21H7.05A5.047 5.047 0 0 1 2 15.96v-.01s.006-4.426.014-6.652a.5.5 0 0 1 .808-.392C5.2 10.791 9.447 14.228 9.5 14.273a4.067 4.067 0 0 0 2.53.89 4.013 4.013 0 0 0 2.53-.9c.053-.035 4.207-3.369 6.619-5.285a.5.5 0 0 1 .811.39c.01 2.208.01 6.572.01 6.572z" style="opacity:.4;fill:#ff7800"/>
            <path data-name="Path 14" d="M21.476 5.674A5.035 5.035 0 0 0 17.03 3H7.05A5.035 5.035 0 0 0 2.6 5.674a.864.864 0 0 0 .221 1.078l7.425 5.939a2.826 2.826 0 0 0 1.78.629h.02a2.826 2.826 0 0 0 1.78-.629l7.425-5.939a.864.864 0 0 0 .225-1.078z" style="fill:#ff7800"/>
        </g>
    </g>
</svg>
