<svg xmlns="http://www.w3.org/2000/svg" width="34" height="34" viewBox="0 0 34 34">
    <g data-name="Group 5282">
        <g style="opacity:.5">
            <path data-name="Exclusion 1" d="M21 16.5H3a3 3 0 0 1-3-3V0h24v13.5a3 3 0 0 1-3 3zM19.25 9a.751.751 0 0 0-.751.75v1.5a.751.751 0 0 0 .751.75h1.5a.751.751 0 0 0 .75-.75v-1.5a.751.751 0 0 0-.75-.75zm-5.334 0a.751.751 0 0 0-.75.75v1.5a.751.751 0 0 0 .75.75h1.5a.751.751 0 0 0 .75-.75v-1.5a.751.751 0 0 0-.75-.75zM8.583 9a.751.751 0 0 0-.75.75v1.5a.751.751 0 0 0 .75.75h1.5a.751.751 0 0 0 .751-.75v-1.5a.751.751 0 0 0-.751-.75zM3.25 9a.751.751 0 0 0-.75.75v1.5a.751.751 0 0 0 .75.75h1.5a.751.751 0 0 0 .75-.75v-1.5A.751.751 0 0 0 4.75 9zm16-5.333a.751.751 0 0 0-.751.75v1.5a.751.751 0 0 0 .751.75h1.5a.751.751 0 0 0 .75-.75v-1.5a.751.751 0 0 0-.75-.75zm-5.334 0a.751.751 0 0 0-.75.75v1.5a.751.751 0 0 0 .75.75h1.5a.751.751 0 0 0 .75-.75v-1.5a.751.751 0 0 0-.75-.75zm-5.333 0a.751.751 0 0 0-.75.75v1.5a.751.751 0 0 0 .75.75h1.5a.751.751 0 0 0 .751-.75v-1.5a.751.751 0 0 0-.751-.75z" transform="translate(5 12.5)" style="fill:#ff7800"/>
            <path data-name="Exclusion 2" d="M6 .75a.75.75 0 0 0-1.5 0v.75H3a3 3 0 0 0-3 3V6h24V4.5a3 3 0 0 0-3-3h-1.5V.75a.75.75 0 1 0-1.5 0v.75H6z" transform="translate(5 5)" style="fill-rule:evenodd;fill:#ff7800;opacity:.5"/>
        </g>
        <path data-name="Rectangle 12" style="fill:none" d="M0 0h34v34H0z"/>
    </g>
</svg>
