<svg xmlns="http://www.w3.org/2000/svg" width="24" height="24" viewBox="0 0 24 24">
    <g data-name="Group 6">
        <path data-name="Rectangle 13" style="fill:none" d="M0 0h24v24H0z"/>
        <g style="opacity:.5">
            <path data-name="Path 11" d="M7.769 8.714h8.462a4.223 4.223 0 0 1 4.269 4.175v4.937A4.223 4.223 0 0 1 16.231 22H7.769A4.223 4.223 0 0 1 3.5 17.825v-4.936a4.223 4.223 0 0 1 4.269-4.175zm4.226 8.616a.879.879 0 0 0 .894-.874v-2.207a.889.889 0 0 0-1.778 0v2.206a.877.877 0 0 0 .884.874z" style="fill-rule:evenodd;fill:#ff7800" transform="translate(-.5)"/>
            <path data-name="Path 12" d="M17.523 7.4v1.467a4.154 4.154 0 0 0-1.118-.149h-.66V7.4a3.746 3.746 0 0 0-7.489-.02v1.338h-.65a3.817 3.817 0 0 0-1.128.159V7.4a5.524 5.524 0 0 1 11.045 0z" style="opacity:.4;fill:#ff7800" transform="translate(-.5)"/>
        </g>
    </g>
</svg>
